<svg xmlns="http://www.w3.org/2000/svg" xmlns:xlink="http://www.w3.org/1999/xlink" width="500" zoomAndPan="magnify" viewBox="0 0 375 374.999991" height="500" preserveAspectRatio="xMidYMid meet" version="1.2"><defs><clipPath id="fc9fc96885"><path d="M 18.78125 138.058594 L 104.28125 138.058594 L 104.28125 206.308594 L 18.78125 206.308594 Z M 18.78125 138.058594 "/></clipPath><clipPath id="c3b82728e8"><path d="M 0.828125 0.0585938 L 86.28125 0.0585938 L 86.28125 68.308594 L 0.828125 68.308594 Z M 0.828125 0.0585938 "/></clipPath><clipPath id="0a2f1a33db"><rect x="0" width="87" y="0" height="69"/></clipPath></defs><g id="a579f0dd9b"><g style="fill:#004d3a;fill-opacity:1;"><g transform="translate(116.333721, 182.03155)"><path style="stroke:none" d="M 0.96875 -21.253906 L 0.96875 -10.5 L 3.585938 -7.882812 L 11.695312 -7.882812 L 11.695312 -0.226562 L 5.554688 -0.226562 L 5.554688 -3.617188 L 0.96875 -3.617188 L 0.96875 1.355469 L 4.003906 4.359375 L 12.921875 4.359375 L 16.28125 0.90625 L 16.28125 -9.789062 L 13.664062 -12.4375 L 5.554688 -12.4375 L 5.554688 -19.125 L 11.695312 -19.125 L 11.695312 -15.828125 L 16.28125 -15.828125 L 16.28125 -21.191406 L 13.695312 -23.710938 L 3.457031 -23.710938 Z M 0.96875 -21.253906 "/></g></g><g style="fill:#004d3a;fill-opacity:1;"><g transform="translate(135.389425, 182.03155)"><path style="stroke:none" d="M 0.96875 -13.695312 L 5.394531 -13.695312 L 5.394531 -19.125 L 8.238281 -19.125 L 8.238281 -0.226562 L 6.136719 -0.226562 L 6.136719 4.359375 L 14.921875 4.359375 L 14.921875 -0.226562 L 12.824219 -0.226562 L 12.824219 -19.125 L 15.667969 -19.125 L 15.667969 -13.695312 L 20.09375 -13.695312 L 20.09375 -23.710938 L 0.96875 -23.710938 Z M 0.96875 -13.695312 "/></g></g><g style="fill:#004d3a;fill-opacity:1;"><g transform="translate(158.256161, 182.03155)"><path style="stroke:none" d="M 0.96875 -19.125 L 3.070312 -19.125 L 3.070312 1.550781 L 5.945312 4.359375 L 15.859375 4.359375 L 18.671875 1.550781 L 18.671875 -19.125 L 20.769531 -19.125 L 20.769531 -23.710938 L 11.984375 -23.710938 L 11.984375 -19.125 L 14.082031 -19.125 L 14.082031 -0.226562 L 7.65625 -0.226562 L 7.65625 -19.125 L 9.753906 -19.125 L 9.753906 -23.710938 L 0.96875 -23.710938 Z M 0.96875 -19.125 "/></g></g><g style="fill:#004d3a;fill-opacity:1;"><g transform="translate(181.801131, 182.03155)"><path style="stroke:none" d="M 0.96875 -23.710938 L 0.96875 -19.125 L 3.070312 -19.125 L 3.070312 -0.226562 L 0.96875 -0.226562 L 0.96875 4.359375 L 15.277344 4.359375 L 17.992188 1.746094 L 17.992188 -21.449219 L 15.601562 -23.710938 Z M 13.40625 -19.125 L 13.40625 -0.226562 L 7.65625 -0.226562 L 7.65625 -19.125 Z M 13.40625 -19.125 "/></g></g><g style="fill:#004d3a;fill-opacity:1;"><g transform="translate(202.568574, 182.03155)"><path style="stroke:none" d="M 0.96875 -19.125 L 3.003906 -19.125 L 8.980469 -7.753906 L 8.980469 -0.226562 L 6.878906 -0.226562 L 6.878906 4.359375 L 15.667969 4.359375 L 15.667969 -0.226562 L 13.566406 -0.226562 L 13.566406 -7.816406 L 19.253906 -19.125 L 20.964844 -19.125 L 20.964844 -23.710938 L 12.402344 -23.710938 L 12.402344 -19.125 L 14.375 -19.125 L 11.175781 -12.597656 L 7.882812 -19.125 L 10.144531 -19.125 L 10.144531 -23.710938 L 0.96875 -23.710938 Z M 0.96875 -19.125 "/></g></g><g style="fill:#004d3a;fill-opacity:1;"><g transform="translate(226.307315, 182.03155)"><path style="stroke:none" d=""/></g></g><g style="fill:#004d3a;fill-opacity:1;"><g transform="translate(236.578284, 182.03155)"><path style="stroke:none" d="M 0.96875 -21.253906 L 0.96875 -10.5 L 3.585938 -7.882812 L 11.695312 -7.882812 L 11.695312 -0.226562 L 5.554688 -0.226562 L 5.554688 -3.617188 L 0.96875 -3.617188 L 0.96875 1.355469 L 4.003906 4.359375 L 12.921875 4.359375 L 16.28125 0.90625 L 16.28125 -9.789062 L 13.664062 -12.4375 L 5.554688 -12.4375 L 5.554688 -19.125 L 11.695312 -19.125 L 11.695312 -15.828125 L 16.28125 -15.828125 L 16.28125 -21.191406 L 13.695312 -23.710938 L 3.457031 -23.710938 Z M 0.96875 -21.253906 "/></g></g><g style="fill:#004d3a;fill-opacity:1;"><g transform="translate(255.633989, 182.03155)"><path style="stroke:none" d="M 0.96875 -13.695312 L 5.394531 -13.695312 L 5.394531 -19.125 L 8.238281 -19.125 L 8.238281 -0.226562 L 6.136719 -0.226562 L 6.136719 4.359375 L 14.921875 4.359375 L 14.921875 -0.226562 L 12.824219 -0.226562 L 12.824219 -19.125 L 15.667969 -19.125 L 15.667969 -13.695312 L 20.09375 -13.695312 L 20.09375 -23.710938 L 0.96875 -23.710938 Z M 0.96875 -13.695312 "/></g></g><g style="fill:#004d3a;fill-opacity:1;"><g transform="translate(278.500724, 182.03155)"><path style="stroke:none" d="M 0.96875 -0.226562 L 0.96875 4.359375 L 9.753906 4.359375 L 9.753906 -0.226562 L 7.332031 -0.226562 L 7.816406 -2.101562 L 14.632812 -2.101562 L 15.148438 -0.226562 L 12.890625 -0.226562 L 12.890625 4.359375 L 21.902344 4.359375 L 21.902344 -0.226562 L 19.609375 -0.226562 L 13.339844 -23.710938 L 9.175781 -23.710938 L 2.875 -0.226562 Z M 11.304688 -15.117188 L 13.46875 -6.621094 L 9.011719 -6.621094 Z M 11.304688 -15.117188 "/></g></g><g style="fill:#004d3a;fill-opacity:1;"><g transform="translate(303.176084, 182.03155)"><path style="stroke:none" d="M 0.96875 -20.804688 L 0.96875 1.582031 L 3.8125 4.359375 L 13.503906 4.359375 L 15.894531 1.875 L 15.894531 -4.265625 L 11.304688 -4.265625 L 11.304688 -0.226562 L 5.554688 -0.226562 L 5.554688 -19.125 L 11.304688 -19.125 L 11.304688 -15.148438 L 15.894531 -15.148438 L 15.894531 -20.964844 L 13.179688 -23.710938 L 3.84375 -23.710938 Z M 0.96875 -20.804688 "/></g></g><g style="fill:#004d3a;fill-opacity:1;"><g transform="translate(321.844235, 182.03155)"><path style="stroke:none" d="M 0.96875 4.359375 L 9.753906 4.359375 L 9.753906 -0.226562 L 7.65625 -0.226562 L 7.65625 -2.941406 L 12.339844 -8.722656 L 16.863281 -0.226562 L 14.730469 -0.226562 L 14.730469 4.359375 L 23.9375 4.359375 L 23.9375 -0.226562 L 21.707031 -0.226562 L 15.246094 -12.179688 L 20.996094 -19.125 L 22.902344 -19.125 L 22.902344 -23.710938 L 13.113281 -23.710938 L 13.113281 -19.125 L 15.441406 -19.125 L 7.65625 -9.304688 L 7.65625 -19.125 L 9.753906 -19.125 L 9.753906 -23.710938 L 0.96875 -23.710938 L 0.96875 -19.125 L 3.070312 -19.125 L 3.070312 -0.226562 L 0.96875 -0.226562 Z M 0.96875 4.359375 "/></g></g><g clip-rule="nonzero" clip-path="url(#fc9fc96885)"><g transform="matrix(1,0,0,1,18,138)"><g clip-path="url(#0a2f1a33db)"><g clip-rule="nonzero" clip-path="url(#c3b82728e8)"><path style=" stroke:none;fill-rule:nonzero;fill:#004d3a;fill-opacity:1;" d="M 50.570312 0.121094 L 51.6875 0.457031 L 83.765625 9.699219 L 86.328125 10.480469 L 86.328125 15.9375 L 84.101562 16.828125 L 54.136719 28.636719 L 53.46875 28.859375 L 33.640625 28.859375 L 33.082031 28.636719 L 14.148438 21.507812 L 14.035156 21.507812 C 10.894531 20.25 7.910156 22.300781 7.910156 25.628906 L 7.910156 25.964844 C 7.910156 28.015625 8.949219 29.578125 10.917969 30.53125 C 10.996094 30.570312 11.054688 30.605469 11.140625 30.640625 L 43.554688 42.894531 L 70.398438 32.648438 C 77.953125 29.625 86.328125 35.375 86.328125 43.453125 L 86.328125 43.785156 C 86.328125 48.777344 83.148438 53.023438 78.863281 54.925781 L 78.753906 54.925781 L 78.640625 55.035156 L 44.78125 67.84375 L 43.554688 68.292969 L 42.328125 67.84375 L 19.828125 59.269531 L 19.941406 59.046875 L 0.78125 52.027344 L 0.78125 44.230469 L 22.390625 52.585938 L 22.390625 52.695312 L 22.5 52.695312 L 43.554688 60.714844 L 75.96875 48.464844 L 76.191406 48.351562 C 78.160156 47.398438 79.199219 45.839844 79.199219 43.785156 L 79.199219 43.453125 C 79.199219 40.125 76.214844 38.074219 73.074219 39.328125 L 72.960938 39.328125 L 44.78125 50.023438 L 43.554688 50.46875 L 42.328125 50.023438 L 8.46875 37.214844 L 8.355469 37.101562 L 8.242188 37.101562 C 3.960938 35.199219 0.78125 30.953125 0.78125 25.964844 L 0.78125 25.628906 C 0.78125 20.015625 4.90625 15.800781 9.914062 14.601562 L 9.914062 14.492188 L 11.027344 14.15625 L 49.457031 0.566406 Z M 50.683594 7.695312 L 23.28125 17.273438 L 34.976562 21.730469 L 35.089844 21.730469 L 43.554688 16.050781 L 52.019531 21.730469 L 72.179688 13.820312 Z M 50.683594 7.695312 "/></g></g></g></g></g></svg>