<svg xmlns="http://www.w3.org/2000/svg" width="320" height="60" viewBox="0 0 320 60">
  <!-- Stylized book stack icon -->
  <g transform="translate(8, 8)">
    <!-- Bottom book with curved binding -->
    <path d="M0 35 Q0 30 5 30 L35 30 Q40 30 40 35 L40 42 Q40 47 35 47 L5 47 Q0 47 0 42 Z" fill="#2D6A4F"/>
    <path d="M0 35 Q8 32 16 35 Q24 38 32 35 Q36 33 40 35" stroke="#ffffff" stroke-width="1.5" fill="none" opacity="0.3"/>
    
    <!-- Middle book with curved binding -->
    <path d="M3 22 Q3 17 8 17 L38 17 Q43 17 43 22 L43 32 Q43 37 38 37 L8 37 Q3 37 3 32 Z" fill="#40916C"/>
    <path d="M3 22 Q11 19 19 22 Q27 25 35 22 Q39 20 43 22" stroke="#ffffff" stroke-width="1.5" fill="none" opacity="0.3"/>
    
    <!-- Top book with curved binding -->
    <path d="M6 9 Q6 4 11 4 L41 4 Q46 4 46 9 L46 19 Q46 24 41 24 L11 24 Q6 24 6 19 Z" fill="#52B788"/>
    <path d="M6 9 Q14 6 22 9 Q30 12 38 9 Q42 7 46 9" stroke="#ffffff" stroke-width="1.5" fill="none" opacity="0.3"/>
    
    <!-- Binding highlights -->
    <rect x="0" y="35" width="2" height="12" rx="1" fill="#1B4E3B"/>
    <rect x="3" y="22" width="2" height="15" rx="1" fill="#2D6A4F"/>
    <rect x="6" y="9" width="2" height="15" rx="1" fill="#40916C"/>
  </g>
  
  <!-- STUDY STACK text with bold, professional styling -->
  <text x="70" y="42" font-family="Inter, Arial, sans-serif" font-size="32" font-weight="800" fill="#2D6A4F" letter-spacing="2px">STUDY STACK</text>
</svg>