<!-- studystack-bg.svg -->
<svg xmlns="http://www.w3.org/2000/svg" width="320" height="320" viewBox="0 0 320 320">
  <!-- set your page color here (matches your mock: #CFE8D6) -->
  <rect width="320" height="320" fill="#CFE8D6"/>

  <!-- pattern strokes (soft green) -->
  <g fill="none" stroke="#9DCDB9" stroke-width="2" stroke-linecap="round" stroke-linejoin="round" opacity=".45">
    <!-- ROW 1 -->
    <!-- book -->
    <g transform="translate(24 28)">
      <rect x="0" y="0" rx="4" ry="4" width="44" height="30"/>
      <line x1="22" y1="0" x2="22" y2="30"/>
      <line x1="26" y1="8" x2="40" y2="8"/>
      <line x1="26" y1="14" x2="38" y2="14"/>
      <line x1="26" y1="20" x2="36" y2="20"/>
    </g>
    <!-- chat bubble -->
    <g transform="translate(106 24)">
      <rect x="0" y="0" rx="8" ry="8" width="52" height="36"/>
      <path d="M18 36 l6 10 l10 -10" />
      <line x1="12" y1="12" x2="40" y2="12"/>
      <line x1="12" y1="20" x2="34" y2="20"/>
    </g>
    <!-- document -->
    <g transform="translate(196 28)">
      <path d="M0 6 a6 6 0 0 1 6 -6 h28 l12 12 v30 a6 6 0 0 1 -6 6 h-34 a6 6 0 0 1 -6 -6z"/>
      <path d="M34 0 v12 h12"/>
      <line x1="10" y1="22" x2="40" y2="22"/>
      <line x1="10" y1="28" x2="36" y2="28"/>
    </g>
    <!-- clipboard -->
    <g transform="translate(270 26)">
      <rect x="0" y="8" rx="6" ry="6" width="44" height="36"/>
      <rect x="14" y="0" rx="4" ry="4" width="16" height="12"/>
      <line x1="8" y1="20" x2="36" y2="20"/>
      <line x1="8" y1="26" x2="34" y2="26"/>
    </g>

    <!-- ROW 2 -->
    <!-- notebook / rings -->
    <g transform="translate(34 108)">
      <rect x="0" y="0" rx="6" ry="6" width="52" height="36"/>
      <line x1="12" y1="6" x2="12" y2="30"/>
      <circle cx="12" cy="10" r="2"/><circle cx="12" cy="18" r="2"/><circle cx="12" cy="26" r="2"/>
      <line x1="18" y1="12" x2="40" y2="12"/>
      <line x1="18" y1="20" x2="36" y2="20"/>
    </g>
    <!-- magnifying glass -->
    <g transform="translate(126 108)">
      <circle cx="16" cy="16" r="12"/>
      <line x1="26" y1="26" x2="42" y2="42"/>
      <line x1="10" y1="16" x2="22" y2="16"/>
    </g>
    <!-- graduation cap -->
    <g transform="translate(202 104)">
      <polygon points="24,0 0,10 24,20 48,10 24,0"/>
      <line x1="24" y1="20" x2="24" y2="32"/>
      <circle cx="24" cy="32" r="2"/>
      <path d="M48 10 l10 4 l-10 4"/>
    </g>
    <!-- play/card -->
    <g transform="translate(274 110)">
      <rect x="0" y="0" rx="8" ry="8" width="44" height="30"/>
      <polygon points="18,8 32,15 18,22"/>
    </g>

    <!-- ROW 3 -->
    <!-- stacked books -->
    <g transform="translate(26 190)">
      <rect x="0" y="0" rx="3" ry="3" width="48" height="10"/>
      <rect x="4" y="12" rx="3" ry="3" width="44" height="10"/>
      <rect x="8" y="24" rx="3" ry="3" width="40" height="10"/>
      <line x1="6" y1="5" x2="18" y2="5"/><line x1="10" y1="17" x2="28" y2="17"/>
    </g>
    <!-- message threads -->
    <g transform="translate(108 186)">
      <rect x="0" y="0" rx="8" ry="8" width="52" height="36"/>
      <rect x="6" y="24" rx="6" ry="6" width="40" height="26"/>
      <line x1="12" y1="12" x2="40" y2="12"/>
      <line x1="12" y1="30" x2="36" y2="30"/>
    </g>
    <!-- certificate -->
    <g transform="translate(196 188)">
      <rect x="0" y="0" rx="6" ry="6" width="52" height="36"/>
      <circle cx="18" cy="18" r="6"/>
      <path d="M18 24 v8 l-4 -3 -4 3 v-8"/>
      <line x1="30" y1="12" x2="44" y2="12"/>
      <line x1="30" y1="20" x2="44" y2="20"/>
    </g>
    <!-- bookmark/doc -->
    <g transform="translate(272 188)">
      <rect x="0" y="0" rx="4" ry="4" width="44" height="36"/>
      <path d="M12 0 v18 l6 -4 6 4 v-18"/>
      <line x1="10" y1="26" x2="34" y2="26"/>
    </g>

    <!-- faint diagonals to help the tile feel organic -->
    <g opacity=".25">
      <line x1="0" y1="0" x2="320" y2="320"/>
      <line x1="0" y1="320" x2="320" y2="0"/>
    </g>
  </g>
</svg>